<?xml version="1.0" encoding="UTF-8" standalone="no"?>
<!-- Created with Inkscape (http://www.inkscape.org/) -->

<svg
   xmlns:dc="http://purl.org/dc/elements/1.1/"
   xmlns:cc="http://creativecommons.org/ns#"
   xmlns:rdf="http://www.w3.org/1999/02/22-rdf-syntax-ns#"
   xmlns:svg="http://www.w3.org/2000/svg"
   xmlns="http://www.w3.org/2000/svg"
   xmlns:sodipodi="http://sodipodi.sourceforge.net/DTD/sodipodi-0.dtd"
   xmlns:inkscape="http://www.inkscape.org/namespaces/inkscape"
   id="svg2"
   version="1.1"
   inkscape:version="0.48.4 r9939"
   width="100%"
   height="100%"
   viewBox="0 0 1012.55 927.625"
   xml:space="preserve"
   sodipodi:docname="generic_network.svg"><metadata
     id="metadata8"><rdf:RDF><cc:Work
         rdf:about=""><dc:format>image/svg+xml</dc:format><dc:type
           rdf:resource="http://purl.org/dc/dcmitype/StillImage" /><dc:title></dc:title></cc:Work></rdf:RDF></metadata><defs
     id="defs6" /><sodipodi:namedview
     pagecolor="#ffffff"
     bordercolor="#666666"
     borderopacity="1"
     objecttolerance="10"
     gridtolerance="10"
     guidetolerance="10"
     inkscape:pageopacity="0"
     inkscape:pageshadow="2"
     inkscape:window-width="2560"
     inkscape:window-height="1416"
     id="namedview4"
     showgrid="false"
     inkscape:zoom="1.0176526"
     inkscape:cx="553.54159"
     inkscape:cy="378.192"
     inkscape:window-x="1600"
     inkscape:window-y="24"
     inkscape:window-maximized="1"
     inkscape:current-layer="g12" /><g
     id="g10"
     inkscape:groupmode="layer"
     inkscape:label="ink_ext_XXXXXX"
     transform="matrix(1.25,0,0,-1.25,0,927.625)"><g
       id="g12"
       transform="scale(0.1,0.1)"><g
         id="g14"
         transform="scale(10,10)"><text
           transform="matrix(1,0,0,-1,644.69,440.5)"
           id="text16"><tspan
             style="fill:#231f20;fill-opacity:1;fill-rule:nonzero;stroke:none;font-family:Myriad;font-variant:normal;font-weight:normal;font-size:30;writing-mode:lr;-inkscape-font-specification:Myriad-Roman"
             x="0"
             y="0"
             id="tspan18">a</tspan></text>
<text
           transform="matrix(1,0,0,-1,659.19,434.22109)"
           id="text20"><tspan
             style="fill:#231f20;fill-opacity:1;fill-rule:nonzero;stroke:none;font-family:Myriad;font-variant:normal;font-weight:normal;font-size:18;writing-mode:lr;-inkscape-font-specification:Myriad-Roman"
             x="0 9.234"
             y="0"
             sodipodi:role="line"
             id="tspan22">21</tspan></text>
<text
           transform="matrix(1,0,0,-1,416.49,651.50009)"
           id="text24"><tspan
             style="fill:#231f20;fill-opacity:1;fill-rule:nonzero;stroke:none;font-family:Myriad;font-variant:normal;font-weight:normal;font-size:30;writing-mode:lr;-inkscape-font-specification:Myriad-Roman"
             x="0"
             y="0"
             id="tspan26">a</tspan></text>
<text
           transform="matrix(1,0,0,-1,430.99,645.2204)"
           id="text28"><tspan
             style="fill:#231f20;fill-opacity:1;fill-rule:nonzero;stroke:none;font-family:Myriad;font-variant:normal;font-weight:normal;font-size:18;writing-mode:lr;-inkscape-font-specification:Myriad-Roman"
             x="0 9.234"
             y="0"
             sodipodi:role="line"
             id="tspan30">25</tspan></text>
<text
           transform="matrix(1,0,0,-1,416.49,651.50009)"
           id="text32"><tspan
             style="fill:#231f20;fill-opacity:1;fill-rule:nonzero;stroke:none;font-family:Myriad;font-variant:normal;font-weight:normal;font-size:30;writing-mode:lr;-inkscape-font-specification:Myriad-Roman"
             x="0"
             y="0"
             id="tspan34">a</tspan><tspan
             style="fill:#231f20;fill-opacity:1;fill-rule:nonzero;stroke:none;font-family:Myriad;font-variant:normal;font-weight:normal;font-size:30;writing-mode:lr;-inkscape-font-specification:Myriad-Roman"
             x="0"
             y="380"
             id="tspan36">a</tspan></text>
<text
           transform="matrix(1,0,0,-1,430.99,265.22118)"
           id="text38"><tspan
             style="fill:#231f20;fill-opacity:1;fill-rule:nonzero;stroke:none;font-family:Myriad;font-variant:normal;font-weight:normal;font-size:18;writing-mode:lr;-inkscape-font-specification:Myriad-Roman"
             x="0 9.234"
             y="0"
             sodipodi:role="line"
             id="tspan40">13</tspan></text>
<text
           transform="matrix(1,0,0,-1,416.49,271.50009)"
           id="text42"><tspan
             style="fill:#231f20;fill-opacity:1;fill-rule:nonzero;stroke:none;font-family:Myriad;font-variant:normal;font-weight:normal;font-size:30;writing-mode:lr;-inkscape-font-specification:Myriad-Roman"
             x="0"
             y="0"
             id="tspan44">a</tspan><tspan
             style="fill:#231f20;fill-opacity:1;fill-rule:nonzero;stroke:none;font-family:Myriad;font-variant:normal;font-weight:normal;font-size:30;writing-mode:lr;-inkscape-font-specification:Myriad-Roman"
             x="125.2"
             y="127"
             id="tspan46">a</tspan></text>
<text
           transform="matrix(1,0,0,-1,556.19,138.22118)"
           id="text48"><tspan
             style="fill:#231f20;fill-opacity:1;fill-rule:nonzero;stroke:none;font-family:Myriad;font-variant:normal;font-weight:normal;font-size:18;writing-mode:lr;-inkscape-font-specification:Myriad-Roman"
             x="0 9.234"
             y="0"
             sodipodi:role="line"
             id="tspan50">14</tspan></text>
<text
           transform="matrix(1,0,0,-1,541.69,144.50009)"
           id="text52"><tspan
             style="fill:#231f20;fill-opacity:1;fill-rule:nonzero;stroke:none;font-family:Myriad;font-variant:normal;font-weight:normal;font-size:30;writing-mode:lr;-inkscape-font-specification:Myriad-Roman"
             x="0 -260.5"
             y="0"
             sodipodi:role="line"
             id="tspan54">aa</tspan></text>
<text
           transform="matrix(1,0,0,-1,295.69,138.22118)"
           id="text56"><tspan
             style="fill:#231f20;fill-opacity:1;fill-rule:nonzero;stroke:none;font-family:Myriad;font-variant:normal;font-weight:normal;font-size:18;writing-mode:lr;-inkscape-font-specification:Myriad-Roman"
             x="0 9.234"
             y="0"
             sodipodi:role="line"
             id="tspan58">43</tspan></text>
<text
           transform="matrix(1,0,0,-1,281.19,144.50009)"
           id="text60"><tspan
             style="fill:#231f20;fill-opacity:1;fill-rule:nonzero;stroke:none;font-family:Myriad;font-variant:normal;font-weight:normal;font-size:30;writing-mode:lr;-inkscape-font-specification:Myriad-Roman"
             x="0"
             y="0"
             id="tspan62">a</tspan><tspan
             style="fill:#231f20;fill-opacity:1;fill-rule:nonzero;stroke:none;font-family:Myriad;font-variant:normal;font-weight:normal;font-size:30;writing-mode:lr;-inkscape-font-specification:Myriad-Roman"
             x="-91.5"
             y="-296"
             id="tspan64">a</tspan></text>
<text
           transform="matrix(1,0,0,-1,204.19,434.22118)"
           id="text66"><tspan
             style="fill:#231f20;fill-opacity:1;fill-rule:nonzero;stroke:none;font-family:Myriad;font-variant:normal;font-weight:normal;font-size:18;writing-mode:lr;-inkscape-font-specification:Myriad-Roman"
             x="0 9.234"
             y="0"
             sodipodi:role="line"
             id="tspan68">53</tspan></text>
<text
           transform="matrix(1,0,0,-1,416.49,440.50009)"
           id="text70"><tspan
             style="fill:#231f20;fill-opacity:1;fill-rule:nonzero;stroke:none;font-family:Myriad;font-variant:normal;font-weight:normal;font-size:30;writing-mode:lr;-inkscape-font-specification:Myriad-Roman"
             x="0"
             y="0"
             id="tspan72">a</tspan></text>
<text
           transform="matrix(1,0,0,-1,430.99,434.22118)"
           id="text74"><tspan
             style="fill:#231f20;fill-opacity:1;fill-rule:nonzero;stroke:none;font-family:Myriad;font-variant:normal;font-weight:normal;font-size:18;writing-mode:lr;-inkscape-font-specification:Myriad-Roman"
             x="0 9.234"
             y="0"
             sodipodi:role="line"
             id="tspan76">32</tspan></text>
<text
           transform="matrix(1,0,0,-1,656.69,313.50018)"
           id="text78"><tspan
             style="fill:#231f20;fill-opacity:1;fill-rule:nonzero;stroke:none;font-family:Myriad;font-variant:normal;font-weight:normal;font-size:30;writing-mode:lr;-inkscape-font-specification:Myriad-Roman"
             x="0"
             y="0"
             id="tspan80">a</tspan></text>
<text
           transform="matrix(1,0,0,-1,671.19,307.22127)"
           id="text82"><tspan
             style="fill:#231f20;fill-opacity:1;fill-rule:nonzero;stroke:none;font-family:Myriad;font-variant:normal;font-weight:normal;font-size:18;writing-mode:lr;-inkscape-font-specification:Myriad-Roman"
             x="0 9.234"
             y="0"
             sodipodi:role="line"
             id="tspan84">11</tspan></text>
<text
           transform="matrix(1,0,0,-1,25.69,314.50018)"
           id="text86"><tspan
             style="fill:#231f20;fill-opacity:1;fill-rule:nonzero;stroke:none;font-family:Myriad;font-variant:normal;font-weight:normal;font-size:30;writing-mode:lr;-inkscape-font-specification:Myriad-Roman"
             x="0"
             y="0"
             id="tspan88">a</tspan></text>
<text
           transform="matrix(1,0,0,-1,40.19,308.22127)"
           id="text90"><tspan
             style="fill:#231f20;fill-opacity:1;fill-rule:nonzero;stroke:none;font-family:Myriad;font-variant:normal;font-weight:normal;font-size:18;writing-mode:lr;-inkscape-font-specification:Myriad-Roman"
             x="0 9.234"
             y="0"
             sodipodi:role="line"
             id="tspan92">33</tspan></text>
<text
           transform="matrix(1,0,0,-1,156.69,700.50027)"
           id="text94"><tspan
             style="fill:#231f20;fill-opacity:1;fill-rule:nonzero;stroke:none;font-family:Myriad;font-variant:normal;font-weight:normal;font-size:30;writing-mode:lr;-inkscape-font-specification:Myriad-Roman"
             x="0"
             y="0"
             id="tspan96">a</tspan></text>
<text
           transform="matrix(1,0,0,-1,171.19,694.22058)"
           id="text98"><tspan
             style="fill:#231f20;fill-opacity:1;fill-rule:nonzero;stroke:none;font-family:Myriad;font-variant:normal;font-weight:normal;font-size:18;writing-mode:lr;-inkscape-font-specification:Myriad-Roman"
             x="0 9.234"
             y="0"
             sodipodi:role="line"
             id="tspan100">55</tspan></text>
<text
           transform="matrix(1,0,0,-1,548.69,700.50027)"
           id="text102"><tspan
             style="fill:#231f20;fill-opacity:1;fill-rule:nonzero;stroke:none;font-family:Myriad;font-variant:normal;font-weight:normal;font-size:30;writing-mode:lr;-inkscape-font-specification:Myriad-Roman"
             x="0"
             y="0"
             id="tspan104">a</tspan></text>
<text
           transform="matrix(1,0,0,-1,563.19,694.22058)"
           id="text106"><tspan
             style="fill:#231f20;fill-opacity:1;fill-rule:nonzero;stroke:none;font-family:Myriad;font-variant:normal;font-weight:normal;font-size:18;writing-mode:lr;-inkscape-font-specification:Myriad-Roman"
             x="0 9.234"
             y="0"
             sodipodi:role="line"
             id="tspan108">22</tspan></text>
<text
           transform="matrix(1,0,0,-1,365.69,104.49958)"
           id="text110"><tspan
             style="fill:#231f20;fill-opacity:1;fill-rule:nonzero;stroke:none;font-family:Myriad;font-variant:normal;font-weight:normal;font-size:30;writing-mode:lr;-inkscape-font-specification:Myriad-Roman"
             x="0"
             y="0"
             id="tspan112">a</tspan></text>
<text
           transform="matrix(1,0,0,-1,380.19,98.22067)"
           id="text114"><tspan
             style="fill:#231f20;fill-opacity:1;fill-rule:nonzero;stroke:none;font-family:Myriad;font-variant:normal;font-weight:normal;font-size:18;writing-mode:lr;-inkscape-font-specification:Myriad-Roman"
             x="0 9.234"
             y="0"
             sodipodi:role="line"
             id="tspan116">44</tspan></text>
</g><path
         d="M 4691,500 7000.6,2178.02"
         style="fill:none;stroke:#ed1e24;stroke-opacity:1;stroke-width:20;stroke-linecap:butt;stroke-linejoin:round;stroke-miterlimit:10;stroke-dasharray:none"
         id="path118" /><path
         d="m 4681.2,513.48 c -7.45,-5.41 -9.1,-15.828 -3.69,-23.281 5.41,-7.437 15.84,-9.09 23.28,-3.679 l -19.59,26.96"
         style="fill:#ed1e24;fill-opacity:1;fill-rule:nonzero;stroke:none"
         id="path120" /><path
         d="m 6932.02,2272.41 23.6,17.14 137.14,-188.77 -23.59,-17.14 -137.15,188.77"
         style="fill:#ed1e24;fill-opacity:1;fill-rule:nonzero;stroke:none"
         id="path122" /><path
         d="m 3763.57,250 c -644.32,0 -774.91,391.75 -291.66,874.99 483.25,483.25 874.99,262.19 874.99,-493.748"
         style="fill:none;stroke:#ed1e24;stroke-opacity:1;stroke-width:20;stroke-linecap:butt;stroke-linejoin:round;stroke-miterlimit:10;stroke-dasharray:none"
         id="path124" /><path
         d="m 3763.57,233.332 c 9.21,0 16.67,7.457 16.67,16.668 0,9.199 -7.46,16.66 -16.67,16.66 l 0,-33.328"
         style="fill:#ed1e24;fill-opacity:1;fill-rule:nonzero;stroke:none"
         id="path126" /><path
         d="m 4230.23,602.082 233.34,0 0,29.1602 -233.34,0 0,-29.1602 z"
         style="fill:#ed1e24;fill-opacity:1;fill-rule:nonzero;stroke:none"
         id="path128" /><path
         d="m 3110.97,6170 2620.62,0"
         style="fill:none;stroke:#ed1e24;stroke-opacity:1;stroke-width:20;stroke-linecap:butt;stroke-linejoin:round;stroke-miterlimit:10;stroke-dasharray:none"
         id="path130" /><path
         d="M 1520.83,2303.26 3814.04,637.152"
         style="fill:none;stroke:#3b4ba7;stroke-opacity:1;stroke-width:20;stroke-linecap:butt;stroke-linejoin:round;stroke-miterlimit:10;stroke-dasharray:none"
         id="path132" /><path
         d="m 1530.63,2316.74 c -7.45,5.41 -17.87,3.76 -23.28,-3.68 -5.41,-7.45 -3.76,-17.87 3.69,-23.28 l 19.59,26.96"
         style="fill:#3b4ba7;fill-opacity:1;fill-rule:nonzero;stroke:none"
         id="path134" /><path
         d="M 3848.33,684.34 4002.81,500 l -223.05,89.949 68.57,94.391"
         style="fill:#3b4ba7;fill-opacity:1;fill-rule:nonzero;stroke:none"
         id="path136" /><path
         d="m 2970.97,6380 2620.62,0"
         style="fill:none;stroke:#ed1e24;stroke-opacity:1;stroke-width:20;stroke-linecap:butt;stroke-linejoin:round;stroke-miterlimit:10;stroke-dasharray:none"
         id="path138" /><path
         d="m 2970.97,6296.67 c -9.21,0 -16.67,-7.46 -16.67,-16.67 0,-9.2 7.46,-16.66 16.67,-16.66 l 0,33.33"
         style="fill:#ed1e24;fill-opacity:1;fill-rule:nonzero;stroke:none"
         id="path140" /><path
         d="m 5591.59,6263.34 29.1719,0 0,233.332 -29.1719,0 0,-233.332 z"
         style="fill:#ed1e24;fill-opacity:1;fill-rule:nonzero;stroke:none"
         id="path142" /><path
         d="m 1804.31,6280 c -644.33,0 -774.91,391.75 -291.66,875 483.24,483.25 874.99,262.19 874.99,-493.75"
         style="fill:none;stroke:#ed1e24;stroke-opacity:1;stroke-width:20;stroke-linecap:butt;stroke-linejoin:round;stroke-miterlimit:10;stroke-dasharray:none"
         id="path144" /><path
         d="m 1804.31,6263.34 c 9.21,0 16.67,7.46 16.67,16.66 0,9.21 -7.46,16.67 -16.67,16.67 l 0,-33.33"
         style="fill:#ed1e24;fill-opacity:1;fill-rule:nonzero;stroke:none"
         id="path146" /><path
         d="m 2270.97,6632.09 233.34,0 0,29.168 -233.34,0 0,-29.168 z"
         style="fill:#ed1e24;fill-opacity:1;fill-rule:nonzero;stroke:none"
         id="path148" /><path
         d="m 1257.97,2803.26 976.34,3004.83"
         style="fill:none;stroke:#3b4ba7;stroke-opacity:1;stroke-width:20;stroke-linecap:butt;stroke-linejoin:round;stroke-miterlimit:10;stroke-dasharray:none"
         id="path150" /><path
         d="m 1242.12,2808.4 c -2.84,-8.75 1.95,-18.15 10.7,-20.99 8.76,-2.85 18.16,1.94 21,10.7 l -31.7,10.29"
         style="fill:#3b4ba7;fill-opacity:1;fill-rule:nonzero;stroke:none"
         id="path152" /><path
         d="m 2178.83,5826.12 127.58,203.88 -16.62,-239.93 -110.96,36.05"
         style="fill:#3b4ba7;fill-opacity:1;fill-rule:nonzero;stroke:none"
         id="path154" /><path
         d="m 1760.07,2553.26 4940.34,0"
         style="fill:none;stroke:#3b4ba7;stroke-opacity:1;stroke-width:20;stroke-linecap:butt;stroke-linejoin:round;stroke-miterlimit:10;stroke-dasharray:none"
         id="path156" /><path
         d="m 1760.07,2569.93 c -9.2,0 -16.66,-7.47 -16.66,-16.67 0,-9.2 7.46,-16.66 16.66,-16.66 l 0,33.33"
         style="fill:#3b4ba7;fill-opacity:1;fill-rule:nonzero;stroke:none"
         id="path158" /><path
         d="m 6700.4,2611.6 233.34,-58.34 -233.34,-58.33 0,116.67"
         style="fill:#3b4ba7;fill-opacity:1;fill-rule:nonzero;stroke:none"
         id="path160" /><path
         d="m 593.414,2553.26 c -644.3281,0 -774.906,391.74 -291.66,874.99 483.242,483.25 874.986,262.18 874.986,-493.74"
         style="fill:none;stroke:#ed1e24;stroke-opacity:1;stroke-width:20;stroke-linecap:butt;stroke-linejoin:round;stroke-miterlimit:10;stroke-dasharray:none"
         id="path162" /><path
         d="m 593.414,2536.6 c 9.207,0 16.668,7.46 16.668,16.66 0,9.2 -7.461,16.67 -16.668,16.67 l 0,-33.33"
         style="fill:#ed1e24;fill-opacity:1;fill-rule:nonzero;stroke:none"
         id="path164" /><path
         d="m 1060.08,2905.34 233.328,0 0,29.1719 -233.328,0 0,-29.1719 z"
         style="fill:#ed1e24;fill-opacity:1;fill-rule:nonzero;stroke:none"
         id="path166" /><path
         d="M 5962.08,6030 1709.61,2940.4"
         style="fill:none;stroke:#3b4ba7;stroke-opacity:1;stroke-width:20;stroke-linecap:butt;stroke-linejoin:round;stroke-miterlimit:10;stroke-dasharray:none"
         id="path168" /><path
         d="m 5971.88,6016.53 c 7.45,5.41 9.1,15.83 3.69,23.28 -5.41,7.44 -15.84,9.09 -23.28,3.68 l 19.59,-26.96"
         style="fill:#3b4ba7;fill-opacity:1;fill-rule:nonzero;stroke:none"
         id="path170" /><path
         d="m 1743.9,2893.22 -223.07,-89.96 154.49,184.34 68.58,-94.38"
         style="fill:#3b4ba7;fill-opacity:1;fill-rule:nonzero;stroke:none"
         id="path172" /><path
         d="m 5722.84,6280 c -644.32,0 -774.91,391.75 -291.66,875 483.24,483.25 874.99,262.19 874.99,-493.75"
         style="fill:none;stroke:#ed1e24;stroke-opacity:1;stroke-width:20;stroke-linecap:butt;stroke-linejoin:round;stroke-miterlimit:10;stroke-dasharray:none"
         id="path174" /><path
         d="m 5722.84,6263.34 c 9.21,0 16.67,7.46 16.67,16.66 0,9.21 -7.46,16.67 -16.67,16.67 l 0,-33.33"
         style="fill:#ed1e24;fill-opacity:1;fill-rule:nonzero;stroke:none"
         id="path176" /><path
         d="m 6189.5,6632.09 233.34,0 0,29.168 -233.34,0 0,-29.168 z"
         style="fill:#ed1e24;fill-opacity:1;fill-rule:nonzero;stroke:none"
         id="path178" /><path
         d="M 7435.84,2803.26 6459.5,5808.09"
         style="fill:none;stroke:#3b4ba7;stroke-opacity:1;stroke-width:20;stroke-linecap:butt;stroke-linejoin:round;stroke-miterlimit:10;stroke-dasharray:none"
         id="path180" /><path
         d="m 7419.98,2798.11 c 2.85,-8.76 12.26,-13.55 21.01,-10.7 8.75,2.84 13.54,12.24 10.7,20.99 l -31.71,-10.29"
         style="fill:#3b4ba7;fill-opacity:1;fill-rule:nonzero;stroke:none"
         id="path182" /><path
         d="M 6404.02,5790.07 6387.4,6030 6514.98,5826.12 6404.02,5790.07"
         style="fill:#3b4ba7;fill-opacity:1;fill-rule:nonzero;stroke:none"
         id="path184" /><path
         d="m 6933.74,2553.26 c -644.33,0 -774.91,391.74 -291.67,874.99 483.25,483.25 874.99,262.18 874.99,-493.74"
         style="fill:none;stroke:#ed1e24;stroke-opacity:1;stroke-width:20;stroke-linecap:butt;stroke-linejoin:round;stroke-miterlimit:10;stroke-dasharray:none"
         id="path186" /><path
         d="m 6933.74,2536.6 c 9.2,0 16.66,7.46 16.66,16.66 0,9.2 -7.46,16.67 -16.66,16.67 l 0,-33.33"
         style="fill:#ed1e24;fill-opacity:1;fill-rule:nonzero;stroke:none"
         id="path188" /><path
         d="m 7400.4,2905.34 233.332,0 0,29.1719 -233.332,0 0,-29.1719 z"
         style="fill:#ed1e24;fill-opacity:1;fill-rule:nonzero;stroke:none"
         id="path190" /><path
         d="m 4913.56,483.332 0,-466.6601 -1133.32,0 0,466.6601 1133.32,0 z M 3763.57,500 l 1166.66,0 0,-500 -1166.66,0 0,500"
         style="fill:#100f0d;fill-opacity:1;fill-rule:nonzero;stroke:none"
         id="path192" /><path
         d="m 3780.24,16.6719 1133.32,0 0,466.66 -1133.32,0 0,-466.66 z"
         style="fill:#ffffff;fill-opacity:1;fill-rule:nonzero;stroke:none"
         id="path194" /><path
         d="m 2954.3,6513.34 0,-466.67 -1133.32,0 0,466.67 1133.32,0 z m -1149.99,16.66 1166.66,0 0,-500 -1166.66,0 0,500"
         style="fill:#100f0d;fill-opacity:1;fill-rule:nonzero;stroke:none"
         id="path198" /><path
         d="m 1820.98,6046.67 1133.32,0 0,466.672 -1133.32,0 0,-466.672 z"
         style="fill:#ffffff;fill-opacity:1;fill-rule:nonzero;stroke:none"
         id="path200" /><path
         d="m 1743.41,2786.59 0,-466.66 -1133.328,0 0,466.66 1133.328,0 z m -1149.996,16.67 1166.656,0 0,-500 -1166.656,0 0,500"
         style="fill:#100f0d;fill-opacity:1;fill-rule:nonzero;stroke:none"
         id="path204" /><path
         d="m 610.082,2319.93 1133.33,0 0,466.66 -1133.33,0 0,-466.66 z"
         style="fill:#ffffff;fill-opacity:1;fill-rule:nonzero;stroke:none"
         id="path206" /><path
         d="m 6872.83,6513.34 0,-466.67 -1133.32,0 0,466.67 1133.32,0 z m -1149.99,16.66 1166.66,0 0,-500 -1166.66,0 0,500"
         style="fill:#100f0d;fill-opacity:1;fill-rule:nonzero;stroke:none"
         id="path210" /><path
         d="m 5739.51,6046.67 1133.32,0 0,466.672 -1133.32,0 0,-466.672 z"
         style="fill:#ffffff;fill-opacity:1;fill-rule:nonzero;stroke:none"
         id="path212" /><path
         d="m 8083.73,2786.59 0,-466.66 -1133.33,0 0,466.66 1133.33,0 z m -1149.99,16.67 1166.65,0 0,-500 -1166.65,0 0,500"
         style="fill:#100f0d;fill-opacity:1;fill-rule:nonzero;stroke:none"
         id="path216" /><path
         d="m 6950.4,2319.93 1133.33,0 0,466.66 -1133.33,0 0,-466.66 z"
         style="fill:#ffffff;fill-opacity:1;fill-rule:nonzero;stroke:none"
         id="path218" /><path
         d="m 3091.59,6053.34 29.1719,0 0,233.332 -29.1719,0 0,-233.332 z"
         style="fill:#ed1e24;fill-opacity:1;fill-rule:nonzero;stroke:none"
         id="path222" /><g
         id="g224"
         transform="scale(10,10)"><text
           transform="matrix(1,0,0,-1,416.49,594.5)"
           id="text226"><tspan
             style="fill:#231f20;fill-opacity:1;fill-rule:nonzero;stroke:none;font-family:Myriad;font-variant:normal;font-weight:normal;font-size:30;writing-mode:lr;-inkscape-font-specification:Myriad-Roman"
             x="0"
             y="0"
             id="tspan228">a</tspan></text>
<text
           transform="matrix(1,0,0,-1,430.99,588.22109)"
           id="text230"><tspan
             style="fill:#231f20;fill-opacity:1;fill-rule:nonzero;stroke:none;font-family:Myriad;font-variant:normal;font-weight:normal;font-size:18;writing-mode:lr;-inkscape-font-specification:Myriad-Roman"
             x="0 9.234"
             y="0"
             sodipodi:role="line"
             id="tspan232">52</tspan></text>
<text
           transform="matrix(1,0,0,-1,416.49,594.5)"
           id="text234"><tspan
             style="fill:#231f20;fill-opacity:1;fill-rule:nonzero;stroke:none;font-family:Myriad;font-variant:normal;font-weight:normal;font-size:30;writing-mode:lr;-inkscape-font-specification:Myriad-Roman"
             x="0"
             y="0"
             id="tspan236">a</tspan></text>
</g><text
         xml:space="preserve"
         style="font-size:24px;font-style:normal;font-variant:normal;font-weight:normal;font-stretch:normal;text-align:center;text-anchor:middle;fill:#000000;fill-opacity:1;fill-rule:nonzero;stroke:none;font-family:Sans;-inkscape-font-specification:Sans"
         x="-233.87157"
         y="195.54807"
         id="text3232"
         transform="matrix(8,0,0,-8,0,7421)"><tspan
           sodipodi:role="line"
           id="tspan3234"
           x="-233.87157"
           y="195.54807" /></text>
<text
         xml:space="preserve"
         style="font-size:32px;font-style:normal;font-variant:normal;font-weight:normal;font-stretch:normal;text-align:center;text-anchor:middle;fill:#000000;fill-opacity:1;fill-rule:nonzero;stroke:none;font-family:Sans;-inkscape-font-specification:Sans"
         x="-361.61652"
         y="302.65732"
         id="text3236"
         transform="matrix(8,0,0,-8,0,7421)"><tspan
           sodipodi:role="line"
           id="tspan3238"
           x="-361.61652"
           y="302.65732" /></text>
<text
         xml:space="preserve"
         style="font-size:256px;font-style:normal;font-variant:normal;font-weight:normal;font-stretch:normal;text-align:center;text-anchor:middle;fill:#000000;fill-opacity:1;fill-rule:nonzero;stroke:none;font-family:Sans;-inkscape-font-specification:Sans"
         x="7515.0571"
         y="-2451.8708"
         id="text3240"
         transform="scale(1,-1)"><tspan
           sodipodi:role="line"
           id="tspan3242"
           x="7515.0571"
           y="-2451.8708">G1</tspan></text>
<text
         xml:space="preserve"
         style="font-size:256px;font-style:normal;font-variant:normal;font-weight:normal;font-stretch:normal;text-align:center;text-anchor:middle;fill:#000000;fill-opacity:1;fill-rule:nonzero;stroke:none;font-family:Sans;-inkscape-font-specification:Sans"
         x="1199.3169"
         y="-2469.8506"
         id="text3240-8"
         transform="scale(1,-1)"><tspan
           sodipodi:role="line"
           id="tspan3242-7"
           x="1199.3169"
           y="-2469.8506">G3</tspan></text>
<text
         xml:space="preserve"
         style="font-size:256px;font-style:normal;font-variant:normal;font-weight:normal;font-stretch:normal;text-align:center;text-anchor:middle;fill:#000000;fill-opacity:1;fill-rule:nonzero;stroke:none;font-family:Sans;-inkscape-font-specification:Sans"
         x="6293.9482"
         y="-6180.0732"
         id="text3240-3"
         transform="scale(1,-1)"><tspan
           sodipodi:role="line"
           id="tspan3242-4"
           x="6293.9482"
           y="-6180.0732">G2</tspan></text>
<text
         xml:space="preserve"
         style="font-size:256px;font-style:normal;font-variant:normal;font-weight:normal;font-stretch:normal;text-align:center;text-anchor:middle;fill:#000000;fill-opacity:1;fill-rule:nonzero;stroke:none;font-family:Sans;-inkscape-font-specification:Sans"
         x="2394.2236"
         y="-6196.3506"
         id="text3240-88"
         transform="scale(1,-1)"><tspan
           sodipodi:role="line"
           id="tspan3242-6"
           x="2394.2236"
           y="-6196.3506">G5</tspan></text>
<text
         xml:space="preserve"
         style="font-size:256px;font-style:normal;font-variant:normal;font-weight:normal;font-stretch:normal;text-align:center;text-anchor:middle;fill:#000000;fill-opacity:1;fill-rule:nonzero;stroke:none;font-family:Sans;-inkscape-font-specification:Sans"
         x="4351.9473"
         y="-134.78813"
         id="text3240-86"
         transform="scale(1,-1)"><tspan
           sodipodi:role="line"
           id="tspan3242-1"
           x="4351.9473"
           y="-134.78813">G4</tspan></text>
</g></g></svg>
